<svg width="1024" height="788" xmlns="http://www.w3.org/2000/svg" version="1.1"><g transform="translate(0, 10)"><g class="links" fill="none" stroke-opacity="0.7"><path d="M2,254.33333333333346C256.5,254.33333333333346,256.5,254.33333333333312,511,254.33333333333312" stroke-width="58.666666666666664" style="stroke: rgb(200, 200, 200);"></path><path d="M2,336.8333333333335C256.5,336.8333333333335,256.5,390.8333333333334,511,390.8333333333334" stroke-width="106.33333333333333" style="stroke: rgb(200, 200, 200);"></path><path d="M2,493.5000000000001C256.5,493.5000000000001,256.5,493.50000000000006,511,493.50000000000006" stroke-width="99" style="stroke: rgb(35, 148, 193);"></path><path d="M2,422.0000000000001C256.5,422.0000000000001,256.5,305.66666666666646,511,305.66666666666646" stroke-width="44" style="stroke: rgb(35, 148, 193);"></path><path d="M513,252.49999999999972C767.5,252.49999999999972,767.5,232.50000000000009,1022,232.50000000000009" stroke-width="3.6666666666666665" style="stroke: rgb(105, 191, 191);"></path><path d="M513,226.83333333333312C767.5,226.83333333333312,767.5,50.16666666666659,1022,50.16666666666659" stroke-width="3.6666666666666665" style="stroke: rgb(105, 191, 191);"></path><path d="M513,248.83333333333306C767.5,248.83333333333306,767.5,215.1666666666667,1022,215.1666666666667" stroke-width="3.6666666666666665" style="stroke: rgb(105, 191, 191);"></path><path d="M513,318.4999999999998C767.5,318.4999999999998,767.5,662.1666666666669,1022,662.1666666666669" stroke-width="3.6666666666666665" style="stroke: rgb(105, 191, 191);"></path><path d="M513,241.49999999999974C767.5,241.49999999999974,767.5,145.83333333333323,1022,145.83333333333323" stroke-width="3.6666666666666665" style="stroke: rgb(105, 191, 191);"></path><path d="M513,307.4999999999997C767.5,307.4999999999997,767.5,571.8333333333336,1022,571.8333333333336" stroke-width="3.6666666666666665" style="stroke: rgb(105, 191, 191);"></path><path d="M513,256.16666666666634C767.5,256.16666666666634,767.5,253.50000000000009,1022,253.50000000000009" stroke-width="3.6666666666666665" style="stroke: rgb(105, 191, 191);"></path><path d="M513,279.9999999999997C767.5,279.9999999999997,767.5,406.6666666666669,1022,406.6666666666669" stroke-width="7.333333333333333" style="stroke: rgb(105, 191, 191);"></path><path d="M513,325.83333333333314C767.5,325.83333333333314,767.5,751.5,1022,751.5" stroke-width="3.6666666666666665" style="stroke: rgb(105, 191, 191);"></path><path d="M513,292.83333333333303C767.5,292.83333333333303,767.5,498.8333333333334,1022,498.8333333333334" stroke-width="3.6666666666666665" style="stroke: rgb(105, 191, 191);"></path><path d="M513,230.49999999999977C767.5,230.49999999999977,767.5,63.833333333333336,1022,63.833333333333336" stroke-width="3.6666666666666665" style="stroke: rgb(105, 191, 191);"></path><path d="M513,245.1666666666664C767.5,245.1666666666664,767.5,176.83333333333334,1022,176.83333333333334" stroke-width="3.6666666666666665" style="stroke: rgb(105, 191, 191);"></path><path d="M513,265.3333333333331C767.5,265.3333333333331,767.5,344.6666666666668,1022,344.6666666666668" stroke-width="7.333333333333333" style="stroke: rgb(105, 191, 191);"></path><path d="M513,234.16666666666643C767.5,234.16666666666643,767.5,91.16666666666681,1022,91.16666666666681" stroke-width="3.6666666666666665" style="stroke: rgb(105, 191, 191);"></path><path d="M513,272.6666666666664C767.5,272.6666666666664,767.5,389.33333333333366,1022,389.33333333333366" stroke-width="7.333333333333333" style="stroke: rgb(105, 191, 191);"></path><path d="M513,285.49999999999966C767.5,285.49999999999966,767.5,425.83333333333354,1022,425.83333333333354" stroke-width="3.6666666666666665" style="stroke: rgb(105, 191, 191);"></path><path d="M513,289.16666666666634C767.5,289.16666666666634,767.5,481.50000000000017,1022,481.50000000000017" stroke-width="3.6666666666666665" style="stroke: rgb(105, 191, 191);"></path><path d="M513,311.1666666666664C767.5,311.1666666666664,767.5,602.8333333333335,1022,602.8333333333335" stroke-width="3.6666666666666665" style="stroke: rgb(105, 191, 191);"></path><path d="M513,301.9999999999998C767.5,301.9999999999998,767.5,542.6666666666667,1022,542.6666666666667" stroke-width="7.333333333333333" style="stroke: rgb(105, 191, 191);"></path><path d="M513,314.8333333333331C767.5,314.8333333333331,767.5,620.1666666666669,1022,620.1666666666669" stroke-width="3.6666666666666665" style="stroke: rgb(105, 191, 191);"></path><path d="M513,237.8333333333331C767.5,237.8333333333331,767.5,132.1666666666667,1022,132.1666666666667" stroke-width="3.6666666666666665" style="stroke: rgb(105, 191, 191);"></path><path d="M513,296.4999999999997C767.5,296.4999999999997,767.5,519.8333333333335,1022,519.8333333333335" stroke-width="3.6666666666666665" style="stroke: rgb(105, 191, 191);"></path><path d="M513,259.83333333333303C767.5,259.83333333333303,767.5,298.1666666666667,1022,298.1666666666667" stroke-width="3.6666666666666665" style="stroke: rgb(105, 191, 191);"></path><path d="M513,322.16666666666646C767.5,322.16666666666646,767.5,696.8333333333334,1022,696.8333333333334" stroke-width="3.6666666666666665" style="stroke: rgb(105, 191, 191);"></path><path d="M513,343.16666666666674C767.5,343.16666666666674,767.5,15.499999999999963,1022,15.499999999999963" stroke-width="3.6666666666666665" style="stroke: rgb(148, 105, 191);"></path><path d="M513,372.50000000000017C767.5,372.50000000000017,767.5,163.1666666666666,1022,163.1666666666666" stroke-width="3.6666666666666665" style="stroke: rgb(148, 105, 191);"></path><path d="M513,495.33333333333366C767.5,495.33333333333366,767.5,629.3333333333335,1022,629.3333333333335" stroke-width="14.666666666666666" style="stroke: rgb(148, 105, 191);"></path><path d="M513,511.8333333333337C767.5,511.8333333333337,767.5,679.5,1022,679.5" stroke-width="11" style="stroke: rgb(148, 105, 191);"></path><path d="M513,401.83333333333354C767.5,401.83333333333354,767.5,257.16666666666674,1022,257.16666666666674" stroke-width="3.6666666666666665" style="stroke: rgb(148, 105, 191);"></path><path d="M513,390.83333333333354C767.5,390.83333333333354,767.5,218.83333333333337,1022,218.83333333333337" stroke-width="3.6666666666666665" style="stroke: rgb(148, 105, 191);"></path><path d="M513,416.5000000000003C767.5,416.5000000000003,767.5,315.49999999999994,1022,315.49999999999994" stroke-width="3.6666666666666665" style="stroke: rgb(148, 105, 191);"></path><path d="M513,462.3333333333337C767.5,462.3333333333337,767.5,504.3333333333335,1022,504.3333333333335" stroke-width="7.333333333333333" style="stroke: rgb(148, 105, 191);"></path><path d="M513,420.16666666666697C767.5,420.16666666666697,767.5,329.1666666666667,1022,329.1666666666667" stroke-width="3.6666666666666665" style="stroke: rgb(148, 105, 191);"></path><path d="M513,379.83333333333354C767.5,379.83333333333354,767.5,184.16666666666666,1022,184.16666666666666" stroke-width="11" style="stroke: rgb(148, 105, 191);"></path><path d="M513,339.50000000000006C767.5,339.50000000000006,767.5,1.8333333333333333,1022,1.8333333333333333" stroke-width="3.6666666666666665" style="stroke: rgb(148, 105, 191);"></path><path d="M513,504.50000000000034C767.5,504.50000000000034,767.5,648.5000000000002,1022,648.5000000000002" stroke-width="3.6666666666666665" style="stroke: rgb(148, 105, 191);"></path><path d="M513,361.5000000000001C767.5,361.5000000000001,767.5,104.83333333333333,1022,104.83333333333333" stroke-width="3.6666666666666665" style="stroke: rgb(148, 105, 191);"></path><path d="M513,409.1666666666669C767.5,409.1666666666669,767.5,284.49999999999994,1022,284.49999999999994" stroke-width="3.6666666666666665" style="stroke: rgb(148, 105, 191);"></path><path d="M513,396.3333333333336C767.5,396.3333333333336,767.5,238.00000000000006,1022,238.00000000000006" stroke-width="7.333333333333333" style="stroke: rgb(148, 105, 191);"></path><path d="M513,535.666666666667C767.5,535.666666666667,767.5,760.6666666666666,1022,760.6666666666666" stroke-width="14.666666666666666" style="stroke: rgb(148, 105, 191);"></path><path d="M513,436.6666666666671C767.5,436.6666666666671,767.5,431.3333333333336,1022,431.3333333333336" stroke-width="7.333333333333333" style="stroke: rgb(148, 105, 191);"></path><path d="M513,412.8333333333336C767.5,412.8333333333336,767.5,301.83333333333337,1022,301.83333333333337" stroke-width="3.6666666666666665" style="stroke: rgb(148, 105, 191);"></path><path d="M513,405.5000000000002C767.5,405.5000000000002,767.5,270.8333333333333,1022,270.8333333333333" stroke-width="3.6666666666666665" style="stroke: rgb(148, 105, 191);"></path><path d="M513,350.5000000000001C767.5,350.5000000000001,767.5,32.83333333333337,1022,32.83333333333337" stroke-width="11" style="stroke: rgb(148, 105, 191);"></path><path d="M513,526.5000000000003C767.5,526.5000000000003,767.5,737.8333333333334,1022,737.8333333333334" stroke-width="3.6666666666666665" style="stroke: rgb(148, 105, 191);"></path><path d="M513,486.16666666666697C767.5,486.16666666666697,767.5,606.5000000000001,1022,606.5000000000001" stroke-width="3.6666666666666665" style="stroke: rgb(148, 105, 191);"></path><path d="M513,519.1666666666671C767.5,519.1666666666671,767.5,710.5000000000001,1022,710.5000000000001" stroke-width="3.6666666666666665" style="stroke: rgb(148, 105, 191);"></path><path d="M513,423.83333333333366C767.5,423.83333333333366,767.5,360.1666666666667,1022,360.1666666666667" stroke-width="3.6666666666666665" style="stroke: rgb(148, 105, 191);"></path><path d="M513,469.666666666667C767.5,469.666666666667,767.5,525.3333333333334,1022,525.3333333333334" stroke-width="7.333333333333333" style="stroke: rgb(148, 105, 191);"></path><path d="M513,365.1666666666668C767.5,365.1666666666668,767.5,118.49999999999996,1022,118.49999999999996" stroke-width="3.6666666666666665" style="stroke: rgb(148, 105, 191);"></path><path d="M513,480.666666666667C767.5,480.666666666667,767.5,587.3333333333334,1022,587.3333333333334" stroke-width="7.333333333333333" style="stroke: rgb(148, 105, 191);"></path><path d="M513,456.83333333333366C767.5,456.83333333333366,767.5,485.16666666666686,1022,485.16666666666686" stroke-width="3.6666666666666665" style="stroke: rgb(148, 105, 191);"></path><path d="M513,451.3333333333337C767.5,451.3333333333337,767.5,466.00000000000017,1022,466.00000000000017" stroke-width="7.333333333333333" style="stroke: rgb(148, 105, 191);"></path><path d="M513,368.8333333333335C767.5,368.8333333333335,767.5,149.4999999999999,1022,149.4999999999999" stroke-width="3.6666666666666665" style="stroke: rgb(148, 105, 191);"></path><path d="M513,444.0000000000004C767.5,444.0000000000004,767.5,448.6666666666669,1022,448.6666666666669" stroke-width="7.333333333333333" style="stroke: rgb(148, 105, 191);"></path><path d="M513,427.50000000000034C767.5,427.50000000000034,767.5,373.83333333333354,1022,373.83333333333354" stroke-width="3.6666666666666665" style="stroke: rgb(148, 105, 191);"></path><path d="M513,475.16666666666697C767.5,475.16666666666697,767.5,558.166666666667,1022,558.166666666667" stroke-width="3.6666666666666665" style="stroke: rgb(148, 105, 191);"></path><path d="M513,357.8333333333334C767.5,357.8333333333334,767.5,77.50000000000007,1022,77.50000000000007" stroke-width="3.6666666666666665" style="stroke: rgb(148, 105, 191);"></path><path d="M513,522.8333333333337C767.5,522.8333333333337,767.5,724.1666666666667,1022,724.1666666666667" stroke-width="3.6666666666666665" style="stroke: rgb(148, 105, 191);"></path><path d="M513,431.166666666667C767.5,431.166666666667,767.5,412.16666666666686,1022,412.16666666666686" stroke-width="3.6666666666666665" style="stroke: rgb(148, 105, 191);"></path><path d="M513,387.16666666666686C767.5,387.16666666666686,767.5,201.49999999999997,1022,201.49999999999997" stroke-width="3.6666666666666665" style="stroke: rgb(148, 105, 191);"></path></g><g class="nodes" font-family="Arial, Helvetica" font-size="10"><g><rect x="511" y="224.99999999999977" height="102.66666666666697" width="2" fill="#000"></rect><text x="505" y="276.33333333333326" dy="0.35em" text-anchor="end">1</text></g><g><rect x="511" y="337.66666666666674" height="205.33333333333348" width="2" fill="#000"></rect><text x="505" y="440.3333333333335" dy="0.35em" text-anchor="end">2</text></g><g><rect x="1022" y="27.33333333333337" height="10.999999999999886" width="2" fill="#000"></rect><text x="1016" y="32.833333333333314" dy="0.35em" text-anchor="end">10</text></g><g><rect x="1022" y="749.6666666666666" height="18.33333333333337" width="2" fill="#000"></rect><text x="1016" y="758.8333333333333" dy="0.35em" text-anchor="end">100</text></g><g><rect x="1022" y="48.33333333333326" height="3.6666666666667425" width="2" fill="#000"></rect><text x="1016" y="50.16666666666663" dy="0.35em" text-anchor="end">15</text></g><g><rect x="1022" y="0" height="3.6666666666666288" width="2" fill="#000"></rect><text x="1016" y="1.8333333333333144" dy="0.35em" text-anchor="end">2</text></g><g><rect x="1022" y="62" height="3.6666666666667425" width="2" fill="#000"></rect><text x="1016" y="63.83333333333337" dy="0.35em" text-anchor="end">21</text></g><g><rect x="1022" y="75.66666666666674" height="3.6666666666667425" width="2" fill="#000"></rect><text x="1016" y="77.50000000000011" dy="0.35em" text-anchor="end">22</text></g><g><rect x="1022" y="89.33333333333348" height="3.666666666666515" width="2" fill="#000"></rect><text x="1016" y="91.16666666666674" dy="0.35em" text-anchor="end">24</text></g><g><rect x="1022" y="103" height="3.6666666666666288" width="2" fill="#000"></rect><text x="1016" y="104.83333333333331" dy="0.35em" text-anchor="end">30</text></g><g><rect x="1022" y="116.66666666666663" height="3.6666666666667425" width="2" fill="#000"></rect><text x="1016" y="118.5" dy="0.35em" text-anchor="end">34</text></g><g><rect x="1022" y="130.33333333333337" height="3.666666666666515" width="2" fill="#000"></rect><text x="1016" y="132.16666666666663" dy="0.35em" text-anchor="end">35</text></g><g><rect x="1022" y="143.9999999999999" height="7.333333333333371" width="2" fill="#000"></rect><text x="1016" y="147.66666666666657" dy="0.35em" text-anchor="end">36</text></g><g><rect x="1022" y="161.33333333333326" height="3.6666666666667425" width="2" fill="#000"></rect><text x="1016" y="163.16666666666663" dy="0.35em" text-anchor="end">37</text></g><g><rect x="1022" y="175" height="14.666666666666629" width="2" fill="#000"></rect><text x="1016" y="182.33333333333331" dy="0.35em" text-anchor="end">40</text></g><g><rect x="1022" y="199.66666666666663" height="3.6666666666667425" width="2" fill="#000"></rect><text x="1016" y="201.5" dy="0.35em" text-anchor="end">42</text></g><g><rect x="1022" y="213.33333333333337" height="7.333333333333371" width="2" fill="#000"></rect><text x="1016" y="217.00000000000006" dy="0.35em" text-anchor="end">45</text></g><g><rect x="1022" y="230.66666666666674" height="11" width="2" fill="#000"></rect><text x="1016" y="236.16666666666674" dy="0.35em" text-anchor="end">50</text></g><g><rect x="1022" y="251.66666666666674" height="7.3333333333332575" width="2" fill="#000"></rect><text x="1016" y="255.33333333333337" dy="0.35em" text-anchor="end">53</text></g><g><rect x="1022" y="269" height="3.6666666666666288" width="2" fill="#000"></rect><text x="1016" y="270.8333333333333" dy="0.35em" text-anchor="end">54</text></g><g><rect x="1022" y="282.66666666666663" height="3.6666666666667425" width="2" fill="#000"></rect><text x="1016" y="284.5" dy="0.35em" text-anchor="end">57</text></g><g><rect x="1022" y="296.33333333333337" height="7.3333333333332575" width="2" fill="#000"></rect><text x="1016" y="300" dy="0.35em" text-anchor="end">60</text></g><g><rect x="1022" y="313.66666666666663" height="3.6666666666667425" width="2" fill="#000"></rect><text x="1016" y="315.5" dy="0.35em" text-anchor="end">62</text></g><g><rect x="1022" y="327.33333333333337" height="3.6666666666667425" width="2" fill="#000"></rect><text x="1016" y="329.16666666666674" dy="0.35em" text-anchor="end">65</text></g><g><rect x="1022" y="341.0000000000001" height="7.3333333333332575" width="2" fill="#000"></rect><text x="1016" y="344.66666666666674" dy="0.35em" text-anchor="end">66</text></g><g><rect x="1022" y="358.33333333333337" height="3.666666666666856" width="2" fill="#000"></rect><text x="1016" y="360.1666666666668" dy="0.35em" text-anchor="end">69</text></g><g><rect x="1022" y="372.0000000000002" height="3.6666666666667425" width="2" fill="#000"></rect><text x="1016" y="373.8333333333336" dy="0.35em" text-anchor="end">70</text></g><g><rect x="1022" y="385.66666666666697" height="7.3333333333332575" width="2" fill="#000"></rect><text x="1016" y="389.3333333333336" dy="0.35em" text-anchor="end">71</text></g><g><rect x="1022" y="403.0000000000002" height="11" width="2" fill="#000"></rect><text x="1016" y="408.5000000000002" dy="0.35em" text-anchor="end">72</text></g><g><rect x="1022" y="424.0000000000002" height="11" width="2" fill="#000"></rect><text x="1016" y="429.5000000000002" dy="0.35em" text-anchor="end">73</text></g><g><rect x="1022" y="445.0000000000002" height="7.3333333333332575" width="2" fill="#000"></rect><text x="1016" y="448.66666666666686" dy="0.35em" text-anchor="end">74</text></g><g><rect x="1022" y="462.3333333333335" height="7.333333333333371" width="2" fill="#000"></rect><text x="1016" y="466.00000000000017" dy="0.35em" text-anchor="end">75</text></g><g><rect x="1022" y="479.66666666666686" height="7.3333333333332575" width="2" fill="#000"></rect><text x="1016" y="483.3333333333335" dy="0.35em" text-anchor="end">76</text></g><g><rect x="1022" y="497.0000000000001" height="11" width="2" fill="#000"></rect><text x="1016" y="502.5000000000001" dy="0.35em" text-anchor="end">79</text></g><g><rect x="1022" y="13.666666666666629" height="3.6666666666667425" width="2" fill="#000"></rect><text x="1016" y="15.5" dy="0.35em" text-anchor="end">8</text></g><g><rect x="1022" y="518.0000000000001" height="11" width="2" fill="#000"></rect><text x="1016" y="523.5000000000001" dy="0.35em" text-anchor="end">80</text></g><g><rect x="1022" y="539.0000000000001" height="7.333333333333485" width="2" fill="#000"></rect><text x="1016" y="542.6666666666669" dy="0.35em" text-anchor="end">81</text></g><g><rect x="1022" y="556.3333333333336" height="3.6666666666666288" width="2" fill="#000"></rect><text x="1016" y="558.166666666667" dy="0.35em" text-anchor="end">82</text></g><g><rect x="1022" y="570.0000000000002" height="3.666666666666515" width="2" fill="#000"></rect><text x="1016" y="571.8333333333335" dy="0.35em" text-anchor="end">83</text></g><g><rect x="1022" y="583.6666666666667" height="7.333333333333371" width="2" fill="#000"></rect><text x="1016" y="587.3333333333335" dy="0.35em" text-anchor="end">84</text></g><g><rect x="1022" y="601.0000000000001" height="7.333333333333371" width="2" fill="#000"></rect><text x="1016" y="604.6666666666667" dy="0.35em" text-anchor="end">85</text></g><g><rect x="1022" y="618.3333333333335" height="18.33333333333337" width="2" fill="#000"></rect><text x="1016" y="627.5000000000002" dy="0.35em" text-anchor="end">86</text></g><g><rect x="1022" y="646.6666666666669" height="3.6666666666666288" width="2" fill="#000"></rect><text x="1016" y="648.5000000000002" dy="0.35em" text-anchor="end">88</text></g><g><rect x="1022" y="660.3333333333335" height="3.666666666666515" width="2" fill="#000"></rect><text x="1016" y="662.1666666666667" dy="0.35em" text-anchor="end">89</text></g><g><rect x="1022" y="674" height="11" width="2" fill="#000"></rect><text x="1016" y="679.5" dy="0.35em" text-anchor="end">90</text></g><g><rect x="1022" y="695" height="3.6666666666667425" width="2" fill="#000"></rect><text x="1016" y="696.8333333333334" dy="0.35em" text-anchor="end">91</text></g><g><rect x="1022" y="708.6666666666667" height="3.6666666666666288" width="2" fill="#000"></rect><text x="1016" y="710.5" dy="0.35em" text-anchor="end">92</text></g><g><rect x="1022" y="722.3333333333334" height="3.6666666666666288" width="2" fill="#000"></rect><text x="1016" y="724.1666666666667" dy="0.35em" text-anchor="end">95</text></g><g><rect x="1022" y="736" height="3.6666666666666288" width="2" fill="#000"></rect><text x="1016" y="737.8333333333333" dy="0.35em" text-anchor="end">99</text></g><g><rect x="0" y="225.0000000000001" height="165" width="2" fill="#000"></rect><text x="8" y="307.5000000000001" dy="0.35em" text-anchor="start">1</text></g><g><rect x="0" y="400.0000000000001" height="142.99999999999977" width="2" fill="#000"></rect><text x="8" y="471.5" dy="0.35em" text-anchor="start">2</text></g></g></g></svg>