<?xml version="1.0" encoding="utf-8"?>
<!-- Generator: Adobe Illustrator 23.1.1, SVG Export Plug-In . SVG Version: 6.00 Build 0)  -->
<svg version="1.1" id="Layer_1" xmlns="http://www.w3.org/2000/svg" xmlns:xlink="http://www.w3.org/1999/xlink" x="0px" y="0px"
	 viewBox="0 0 1024 788" style="enable-background:new 0 0 1024 788;" xml:space="preserve">
<style type="text/css">
	.st0{fill:none;stroke:#BAB3B3;stroke-width:92.5714;stroke-opacity:0.7;}
	.st1{fill:none;stroke:#BAB3B3;stroke-width:61.7143;stroke-opacity:0.7;}
	.st2{fill:none;stroke:#87C7ED;stroke-width:54.8571;stroke-opacity:0.7;}
	.st3{fill:none;stroke:#87C7ED;stroke-width:78.8571;stroke-opacity:0.7;}
	.st4{fill:none;stroke:#BF7C69;stroke-width:3.4286;stroke-opacity:0.7;}
	.st5{fill:none;stroke:#BF7C69;stroke-width:6.8571;stroke-opacity:0.7;}
	.st6{fill:none;stroke:#BF7C69;stroke-width:10.2857;stroke-opacity:0.7;}
	.st7{fill:none;stroke:#BF8669;stroke-width:3.4286;stroke-opacity:0.7;}
	.st8{fill:none;stroke:#BF8669;stroke-width:17.1429;stroke-opacity:0.7;}
	.st9{fill:none;stroke:#BF8669;stroke-width:13.7143;stroke-opacity:0.7;}
	.st10{fill:none;stroke:#BF8669;stroke-width:6.8571;stroke-opacity:0.7;}
	.st11{fill:none;stroke:#BF9069;stroke-width:3.4286;stroke-opacity:0.7;}
	.st12{fill:none;stroke:#BF9A69;stroke-width:3.4286;stroke-opacity:0.7;}
	.st13{fill:none;stroke:#BFA369;stroke-width:3.4286;stroke-opacity:0.7;}
	.st14{fill:none;stroke:#BFAD69;stroke-width:6.8571;stroke-opacity:0.7;}
	.st15{fill:none;stroke:#BFB769;stroke-width:3.4286;stroke-opacity:0.7;}
	.st16{fill:none;stroke:#BDBF69;stroke-width:3.4286;stroke-opacity:0.7;}
	.st17{fill:none;stroke:#B3BF69;stroke-width:3.4286;stroke-opacity:0.7;}
	.st18{fill:none;stroke:#AABF69;stroke-width:3.4286;stroke-opacity:0.7;}
	.st19{fill:none;stroke:#A0BF69;stroke-width:3.4286;stroke-opacity:0.7;}
	.st20{fill:none;stroke:#96BF69;stroke-width:3.4286;stroke-opacity:0.7;}
	.st21{fill:none;stroke:#8DBF69;stroke-width:3.4286;stroke-opacity:0.7;}
	.st22{fill:none;stroke:#83BF69;stroke-width:3.4286;stroke-opacity:0.7;}
	.st23{fill:none;stroke:#79BF69;stroke-width:3.4286;stroke-opacity:0.7;}
	.st24{fill:none;stroke:#70BF69;stroke-width:3.4286;stroke-opacity:0.7;}
	.st25{fill:none;stroke:#69BF6C;stroke-width:3.4286;stroke-opacity:0.7;}
	.st26{fill:none;stroke:#69BF76;stroke-width:3.4286;stroke-opacity:0.7;}
	.st27{fill:none;stroke:#69BF80;stroke-width:6.8571;stroke-opacity:0.7;}
	.st28{fill:none;stroke:#69BF80;stroke-width:3.4286;stroke-opacity:0.7;}
	.st29{fill:none;stroke:#69BF89;stroke-width:3.4286;stroke-opacity:0.7;}
	.st30{fill:none;stroke:#69BF89;stroke-width:6.8571;stroke-opacity:0.7;}
	.st31{fill:none;stroke:#69BF93;stroke-width:3.4286;stroke-opacity:0.7;}
	.st32{fill:none;stroke:#69BF9D;stroke-width:3.4286;stroke-opacity:0.7;}
	.st33{fill:none;stroke:#69BFA6;stroke-width:3.4286;stroke-opacity:0.7;}
	.st34{fill:none;stroke:#69BFB0;stroke-width:3.4286;stroke-opacity:0.7;}
	.st35{fill:none;stroke:#69BFBA;stroke-width:3.4286;stroke-opacity:0.7;}
	.st36{fill:none;stroke:#69BABF;stroke-width:3.4286;stroke-opacity:0.7;}
	.st37{fill:none;stroke:#69B0BF;stroke-width:3.4286;stroke-opacity:0.7;}
	.st38{fill:none;stroke:#69A6BF;stroke-width:3.4286;stroke-opacity:0.7;}
	.st39{fill:none;stroke:#699DBF;stroke-width:3.4286;stroke-opacity:0.7;}
	.st40{fill:none;stroke:#6993BF;stroke-width:3.4286;stroke-opacity:0.7;}
	.st41{fill:none;stroke:#6989BF;stroke-width:3.4286;stroke-opacity:0.7;}
	.st42{fill:none;stroke:#6980BF;stroke-width:3.4286;stroke-opacity:0.7;}
	.st43{fill:none;stroke:#6976BF;stroke-width:6.8571;stroke-opacity:0.7;}
	.st44{fill:none;stroke:#6976BF;stroke-width:3.4286;stroke-opacity:0.7;}
	.st45{fill:none;stroke:#696CBF;stroke-width:3.4286;stroke-opacity:0.7;}
	.st46{fill:none;stroke:#7069BF;stroke-width:3.4286;stroke-opacity:0.7;}
	.st47{fill:none;stroke:#7969BF;stroke-width:3.4286;stroke-opacity:0.7;}
	.st48{fill:none;stroke:#8369BF;stroke-width:3.4286;stroke-opacity:0.7;}
	.st49{fill:none;stroke:#8D69BF;stroke-width:3.4286;stroke-opacity:0.7;}
	.st50{fill:none;stroke:#9669BF;stroke-width:3.4286;stroke-opacity:0.7;}
	.st51{fill:none;stroke:#A069BF;stroke-width:3.4286;stroke-opacity:0.7;}
	.st52{fill:none;stroke:#AA69BF;stroke-width:3.4286;stroke-opacity:0.7;}
	.st53{fill:none;stroke:#B369BF;stroke-width:3.4286;stroke-opacity:0.7;}
	.st54{fill:none;stroke:#BD69BF;stroke-width:3.4286;stroke-opacity:0.7;}
	.st55{fill:none;stroke:#BF69B7;stroke-width:3.4286;stroke-opacity:0.7;}
	.st56{fill:none;stroke:#BF69AD;stroke-width:3.4286;stroke-opacity:0.7;}
	.st57{fill:none;stroke:#BF69A3;stroke-width:3.4286;stroke-opacity:0.7;}
	.st58{fill:none;stroke:#BF699A;stroke-width:3.4286;stroke-opacity:0.7;}
	.st59{fill:none;stroke:#BF6990;stroke-width:3.4286;stroke-opacity:0.7;}
	.st60{fill:none;stroke:#BF6986;stroke-width:3.4286;stroke-opacity:0.7;}
	.st61{fill:none;stroke:#BF697C;stroke-width:3.4286;stroke-opacity:0.7;}
	.st62{fill:none;stroke:#BF6973;stroke-width:3.4286;stroke-opacity:0.7;}
	.st63{font-family:'ArialMT';}
	.st64{font-size:10px;}
</style>
<g transform="translate(0, 10)">
	<g>
		<path class="st0" d="M2,281.3c169.3,0,169.3,0,338.7,0"/>
		<path class="st1" d="M2,358.4c169.3,0,169.3,64.9,338.7,64.9"/>
		<path class="st2" d="M2,426.7c169.3,0,169.3-71.7,338.7-71.7"/>
		<path class="st3" d="M2,493.6c169.3,0,169.3,0,338.7,0"/>
		<path class="st4" d="M342.7,236.7c169.3,0,169.3-235,338.7-235"/>
		<path class="st5" d="M342.7,241.9C512,241.9,512,43.7,681.3,43.7"/>
		<path class="st4" d="M342.7,247C512,247,512,58.9,681.3,58.9"/>
		<path class="st4" d="M342.7,250.4C512,250.4,512,72.3,681.3,72.3"/>
		<path class="st4" d="M342.7,253.9c169.3,0,169.3-151.3,338.7-151.3"/>
		<path class="st4" d="M342.7,257.3c169.3,0,169.3-137.9,338.7-137.9"/>
		<path class="st4" d="M342.7,260.7c169.3,0,169.3-101,338.7-101"/>
		<path class="st4" d="M342.7,264.1c169.3,0,169.3-87.6,338.7-87.6"/>
		<path class="st6" d="M342.7,271c169.3,0,169.3-37.3,338.7-37.3"/>
		<path class="st5" d="M342.7,279.6c169.3,0,169.3-10.1,338.7-10.1"/>
		<path class="st4" d="M342.7,284.7c169.3,0,169.3,3.3,338.7,3.3"/>
		<path class="st4" d="M342.7,288.1c169.3,0,169.3,26.7,338.7,26.7"/>
		<path class="st6" d="M342.7,295c169.3,0,169.3,36.7,338.7,36.7"/>
		<path class="st4" d="M342.7,301.9C512,301.9,512,352,681.3,352"/>
		<path class="st4" d="M342.7,305.3c169.3,0,169.3,73.6,338.7,73.6"/>
		<path class="st4" d="M342.7,308.7c169.3,0,169.3,83.6,338.7,83.6"/>
		<path class="st5" d="M342.7,313.9c169.3,0,169.3,107,338.7,107"/>
		<path class="st5" d="M342.7,320.7c169.3,0,169.3,117,338.7,117"/>
		<path class="st4" d="M342.7,325.9c169.3,0,169.3,127,338.7,127"/>
		<path class="st5" d="M342.7,331C512,331,512,468,681.3,468"/>
		<path class="st4" d="M342.7,336.1c169.3,0,169.3,224.7,338.7,224.7"/>
		<path class="st4" d="M342.7,339.6c169.3,0,169.3,241.6,338.7,241.6"/>
		<path class="st4" d="M342.7,343C512,343,512,594.6,681.3,594.6"/>
		<path class="st5" d="M342.7,348.1c169.3,0,169.3,261.6,338.7,261.6"/>
		<path class="st4" d="M342.7,353.3c169.3,0,169.3,285,338.7,285"/>
		<path class="st4" d="M342.7,356.7c169.3,0,169.3,311.9,338.7,311.9"/>
		<path class="st4" d="M342.7,360.1c169.3,0,169.3,325.3,338.7,325.3"/>
		<path class="st5" d="M342.7,365.3C512,365.3,512,704,681.3,704"/>
		<path class="st5" d="M342.7,372.1c169.3,0,169.3,352.1,338.7,352.1"/>
		<path class="st4" d="M342.7,377.3c169.3,0,169.3,362.1,338.7,362.1"/>
		<path class="st4" d="M342.7,380.7c169.3,0,169.3,385.6,338.7,385.6"/>
		<path class="st7" d="M342.7,394.1c169.3,0,169.3-379,338.7-379"/>
		<path class="st7" d="M342.7,397.6c169.3,0,169.3-369,338.7-369"/>
		<path class="st7" d="M342.7,401C512,401,512,75.7,681.3,75.7"/>
		<path class="st7" d="M342.7,404.4C512,404.4,512,89.1,681.3,89.1"/>
		<path class="st7" d="M342.7,407.9C512,407.9,512,106,681.3,106"/>
		<path class="st7" d="M342.7,411.3c169.3,0,169.3-278.4,338.7-278.4"/>
		<path class="st7" d="M342.7,414.7c169.3,0,169.3-268.4,338.7-268.4"/>
		<path class="st7" d="M342.7,418.1c169.3,0,169.3-255,338.7-255"/>
		<path class="st7" d="M342.7,421.6C512,421.6,512,190,681.3,190"/>
		<path class="st7" d="M342.7,425C512,425,512,203.4,681.3,203.4"/>
		<path class="st7" d="M342.7,428.4c169.3,0,169.3-211.6,338.7-211.6"/>
		<path class="st8" d="M342.7,438.7c169.3,0,169.3-191.3,338.7-191.3"/>
		<path class="st7" d="M342.7,449C512,449,512,274.6,681.3,274.6"/>
		<path class="st7" d="M342.7,452.4c169.3,0,169.3-151,338.7-151"/>
		<path class="st7" d="M342.7,455.9c169.3,0,169.3-117.3,338.7-117.3"/>
		<path class="st7" d="M342.7,459.3c169.3,0,169.3-93.9,338.7-93.9"/>
		<path class="st7" d="M342.7,462.7c169.3,0,169.3-57,338.7-57"/>
		<path class="st9" d="M342.7,471.3c169.3,0,169.3,7,338.7,7"/>
		<path class="st9" d="M342.7,485c169.3,0,169.3,17,338.7,17"/>
		<path class="st7" d="M342.7,493.6c169.3,0,169.3,27,338.7,27"/>
		<path class="st7" d="M342.7,497c169.3,0,169.3,37,338.7,37"/>
		<path class="st7" d="M342.7,500.4c169.3,0,169.3,47,338.7,47"/>
		<path class="st10" d="M342.7,505.6C512,505.6,512,566,681.3,566"/>
		<path class="st7" d="M342.7,510.7c169.3,0,169.3,114.1,338.7,114.1"/>
		<path class="st7" d="M342.7,514.1c169.3,0,169.3,127.6,338.7,127.6"/>
		<path class="st7" d="M342.7,517.6c169.3,0,169.3,137.6,338.7,137.6"/>
		<path class="st7" d="M342.7,521C512,521,512,672,681.3,672"/>
		<path class="st7" d="M342.7,524.4c169.3,0,169.3,164.4,338.7,164.4"/>
		<path class="st7" d="M342.7,527.9c169.3,0,169.3,181.3,338.7,181.3"/>
		<path class="st7" d="M342.7,531.3c169.3,0,169.3,221.6,338.7,221.6"/>
		<path class="st11" d="M683.3,1.7c169.3,0,169.3,130.9,338.7,130.9"/>
		<path class="st12" d="M683.3,15.1c169.3,0,169.3,188.3,338.7,188.3"/>
		<path class="st13" d="M683.3,28.6C852.7,28.6,852.7,456,1022,456"/>
		<path class="st14" d="M683.3,43.7c169.3,0,169.3,238.9,338.7,238.9"/>
		<path class="st15" d="M683.3,58.9c169.3,0,169.3,276,338.7,276"/>
		<path class="st16" d="M683.3,72.3c169.3,0,169.3-17.1,338.7-17.1"/>
		<path class="st16" d="M683.3,75.7c169.3,0,169.3,174.9,338.7,174.9"/>
		<path class="st17" d="M683.3,89.1c169.3,0,169.3,458,338.7,458"/>
		<path class="st18" d="M683.3,102.6c169.3,0,169.3,87.4,338.7,87.4"/>
		<path class="st18" d="M683.3,106c169.3,0,169.3,242.3,338.7,242.3"/>
		<path class="st19" d="M683.3,119.4c169.3,0,169.3,100.9,338.7,100.9"/>
		<path class="st20" d="M683.3,132.9c169.3,0,169.3,74,338.7,74"/>
		<path class="st21" d="M683.3,146.3c169.3,0,169.3,441.4,338.7,441.4"/>
		<path class="st22" d="M683.3,159.7C852.7,159.7,852.7,392,1022,392"/>
		<path class="st22" d="M683.3,163.1c169.3,0,169.3,539.4,338.7,539.4"/>
		<path class="st23" d="M683.3,176.6c169.3,0,169.3-17.1,338.7-17.1"/>
		<path class="st24" d="M683.3,190c169.3,0,169.3,175.1,338.7,175.1"/>
		<path class="st25" d="M683.3,203.4c169.3,0,169.3,387.7,338.7,387.7"/>
		<path class="st26" d="M683.3,216.9c169.3,0,169.3-54,338.7-54"/>
		<path class="st27" d="M683.3,232c169.3,0,169.3-64,338.7-64"/>
		<path class="st28" d="M683.3,254.3c169.3,0,169.3,465.1,338.7,465.1"/>
		<path class="st28" d="M683.3,237.1c169.3,0,169.3,50.6,338.7,50.6"/>
		<path class="st28" d="M683.3,250.9c169.3,0,169.3,184.9,338.7,184.9"/>
		<path class="st28" d="M683.3,247.4c169.3,0,169.3,174.9,338.7,174.9"/>
		<path class="st28" d="M683.3,244c169.3,0,169.3,77.4,338.7,77.4"/>
		<path class="st28" d="M683.3,240.6c169.3,0,169.3,67.4,338.7,67.4"/>
		<path class="st29" d="M683.3,274.6c169.3,0,169.3,215.1,338.7,215.1"/>
		<path class="st30" d="M683.3,269.4c169.3,0,169.3,137.7,338.7,137.7"/>
		<path class="st31" d="M683.3,288c169.3,0,169.3-114.9,338.7-114.9"/>
		<path class="st32" d="M683.3,301.4c169.3,0,169.3,77.1,338.7,77.1"/>
		<path class="st33" d="M683.3,314.9c169.3,0,169.3,154.6,338.7,154.6"/>
		<path class="st34" d="M683.3,335.1c169.3,0,169.3,137.7,338.7,137.7"/>
		<path class="st34" d="M683.3,328.3c169.3,0,169.3-232.9,338.7-232.9"/>
		<path class="st34" d="M683.3,338.6c169.3,0,169.3,178,338.7,178"/>
		<path class="st34" d="M683.3,331.7C852.7,331.7,852.7,146,1022,146"/>
		<path class="st35" d="M683.3,352c169.3,0,169.3-0.3,338.7-0.3"/>
		<path class="st36" d="M683.3,365.4c169.3,0,169.3,229.1,338.7,229.1"/>
		<path class="st37" d="M683.3,378.9C852.7,378.9,852.7,520,1022,520"/>
		<path class="st38" d="M683.3,392.3c169.3,0,169.3,131.1,338.7,131.1"/>
		<path class="st39" d="M683.3,405.7c169.3,0,169.3-306.9,338.7-306.9"/>
		<path class="st40" d="M683.3,419.1c169.3,0,169.3-300,338.7-300"/>
		<path class="st40" d="M683.3,422.6c169.3,0,169.3,216,338.7,216"/>
		<path class="st41" d="M683.3,436C852.7,436,852.7,68.6,1022,68.6"/>
		<path class="st41" d="M683.3,439.4c169.3,0,169.3-337.1,338.7-337.1"/>
		<path class="st42" d="M683.3,452.9c169.3,0,169.3-185.4,338.7-185.4"/>
		<path class="st43" d="M683.3,478.3c169.3,0,169.3,138.3,338.7,138.3"/>
		<path class="st44" d="M683.3,483.4C852.7,483.4,852.7,642,1022,642"/>
		<path class="st44" d="M683.3,473.1C852.7,473.1,852.7,598,1022,598"/>
		<path class="st44" d="M683.3,469.7c169.3,0,169.3,6.6,338.7,6.6"/>
		<path class="st44" d="M683.3,466.3c169.3,0,169.3-360.6,338.7-360.6"/>
		<path class="st45" d="M683.3,503.7c169.3,0,169.3,118,338.7,118"/>
		<path class="st45" d="M683.3,507.1c169.3,0,169.3,215.7,338.7,215.7"/>
		<path class="st45" d="M683.3,500.3c169.3,0,169.3,26.6,338.7,26.6"/>
		<path class="st45" d="M683.3,496.9c169.3,0,169.3-205.7,338.7-205.7"/>
		<path class="st46" d="M683.3,520.6c169.3,0,169.3,43.4,338.7,43.4"/>
		<path class="st47" d="M683.3,534c169.3,0,169.3,151.7,338.7,151.7"/>
		<path class="st48" d="M683.3,547.4c169.3,0,169.3,20,338.7,20"/>
		<path class="st49" d="M683.3,560.9c169.3,0,169.3-266.3,338.7-266.3"/>
		<path class="st49" d="M683.3,564.3c169.3,0,169.3-34,338.7-34"/>
		<path class="st49" d="M683.3,567.7c169.3,0,169.3,3.1,338.7,3.1"/>
		<path class="st50" d="M683.3,581.1c169.3,0,169.3-539.4,338.7-539.4"/>
		<path class="st51" d="M683.3,594.6c169.3,0,169.3-20.3,338.7-20.3"/>
		<path class="st52" d="M683.3,611.4c169.3,0,169.3-77.7,338.7-77.7"/>
		<path class="st52" d="M683.3,608c169.3,0,169.3-370.9,338.7-370.9"/>
		<path class="st53" d="M683.3,624.9c169.3,0,169.3,44,338.7,44"/>
		<path class="st54" d="M683.3,641.7c169.3,0,169.3-91.1,338.7-91.1"/>
		<path class="st54" d="M683.3,638.3c169.3,0,169.3-135.1,338.7-135.1"/>
		<path class="st55" d="M683.3,655.1c169.3,0,169.3-478.6,338.7-478.6"/>
		<path class="st56" d="M683.3,672c169.3,0,169.3,0.3,338.7,0.3"/>
		<path class="st56" d="M683.3,668.6c169.3,0,169.3-229.4,338.7-229.4"/>
		<path class="st57" d="M683.3,688.9c169.3,0,169.3-33.4,338.7-33.4"/>
		<path class="st57" d="M683.3,685.4C852.7,685.4,852.7,254,1022,254"/>
		<path class="st58" d="M683.3,702.3C852.7,702.3,852.7,82,1022,82"/>
		<path class="st58" d="M683.3,705.7c169.3,0,169.3,0.3,338.7,0.3"/>
		<path class="st58" d="M683.3,709.1c169.3,0,169.3,17.1,338.7,17.1"/>
		<path class="st59" d="M683.3,722.6c169.3,0,169.3-121.1,338.7-121.1"/>
		<path class="st59" d="M683.3,726c169.3,0,169.3-100.9,338.7-100.9"/>
		<path class="st60" d="M683.3,739.4c169.3,0,169.3-515.7,338.7-515.7"/>
		<path class="st61" d="M683.3,752.9c169.3,0,169.3-63.7,338.7-63.7"/>
		<path class="st62" d="M683.3,766.3c169.3,0,169.3-323.7,338.7-323.7"/>
	</g>
	<g>
		<g>
			<rect x="338.7" y="240" width="2" height="147.4"/>
			<text transform="matrix(4.011751e-03 -1 1 4.011751e-03 334.8677 346.071)" class="st63 st64">no  clarification</text>
		</g>
		<g>
			<rect x="340.7" y="393.4" width="2" height="140.6"/>
			<text transform="matrix(4.489659e-11 -1 1 4.489659e-11 334.8676 490.7139)" class="st63 st64">with  clarification</text>
		</g>
		<g>
			<rect x="1022" y="717.7" width="2" height="10.3"/>
			<text transform="matrix(1 0 0 1 999.3154 726.3571)" class="st63 st64">100</text>
		</g>
		<g>
			<rect x="1022" y="40" width="2" height="3.4"/>
			<text transform="matrix(1 0 0 1 1005.6191 45.2143)" class="st63 st64">11</text>
		</g>
		<g>
			<rect x="1022" y="53.4" width="2" height="3.4"/>
			<text transform="matrix(1 0 0 1 1004.877 58.6429)" class="st63 st64">19</text>
		</g>
		<g>
			<rect x="1022" y="66.9" width="2" height="3.4"/>
			<text transform="matrix(1 0 0 1 1004.877 72.0714)" class="st63 st64">20</text>
		</g>
		<g>
			<rect x="1022" y="80.3" width="2" height="3.4"/>
			<text transform="matrix(1 0 0 1 1004.877 85.5)" class="st63 st64">37</text>
		</g>
		<g>
			<rect x="1022" y="93.7" width="2" height="13.7"/>
			<text transform="matrix(1 0 0 1 1004.877 104.0714)" class="st63 st64">40</text>
		</g>
		<g>
			<rect x="1022" y="117.4" width="2" height="3.4"/>
			<text transform="matrix(1 0 0 1 1004.877 122.6429)" class="st63 st64">41</text>
		</g>
		<g>
			<rect x="1022" y="130.9" width="2" height="3.4"/>
			<text transform="matrix(1 0 0 1 1004.877 136.0714)" class="st63 st64">43</text>
		</g>
		<g>
			<rect x="1022" y="144.3" width="2" height="3.4"/>
			<text transform="matrix(1 0 0 1 1004.877 149.5)" class="st63 st64">47</text>
		</g>
		<g>
			<rect x="1022" y="157.7" width="2" height="20.6"/>
			<text transform="matrix(1 0 0 1 1004.877 171.5)" class="st63 st64">50</text>
		</g>
		<g>
			<rect x="1022" y="188.3" width="2" height="3.4"/>
			<text transform="matrix(1 0 0 1 1004.877 193.5)" class="st63 st64">51</text>
		</g>
		<g>
			<rect x="1022" y="201.7" width="2" height="6.9"/>
			<text transform="matrix(1 0 0 1 1004.877 208.6428)" class="st63 st64">53</text>
		</g>
		<g>
			<rect x="1022" y="218.6" width="2" height="6.9"/>
			<text transform="matrix(1 0 0 1 1004.877 225.5)" class="st63 st64">54</text>
		</g>
		<g>
			<rect x="1022" y="235.4" width="2" height="3.4"/>
			<text transform="matrix(1 0 0 1 1004.877 240.6428)" class="st63 st64">55</text>
		</g>
		<g>
			<rect x="1022" y="248.9" width="2" height="6.9"/>
			<text transform="matrix(1 0 0 1 1004.877 255.7857)" class="st63 st64">56</text>
		</g>
		<g>
			<rect x="1022" y="265.7" width="2" height="3.4"/>
			<text transform="matrix(1 0 0 1 1004.877 270.9286)" class="st63 st64">59</text>
		</g>
		<g>
			<rect x="1022" y="279.1" width="2" height="17.1"/>
			<text transform="matrix(1 0 0 1 1004.877 291.2143)" class="st63 st64">60</text>
		</g>
		<g>
			<rect x="1022" y="306.3" width="2" height="3.4"/>
			<text transform="matrix(1 0 0 1 1004.877 311.5)" class="st63 st64">61</text>
		</g>
		<g>
			<rect x="1022" y="319.7" width="2" height="3.4"/>
			<text transform="matrix(1 0 0 1 1004.877 324.9286)" class="st63 st64">62</text>
		</g>
		<g>
			<rect x="1022" y="333.1" width="2" height="3.4"/>
			<text transform="matrix(1 0 0 1 1004.877 338.3571)" class="st63 st64">64</text>
		</g>
		<g>
			<rect x="1022" y="346.6" width="2" height="6.9"/>
			<text transform="matrix(1 0 0 1 1004.877 353.5)" class="st63 st64">65</text>
		</g>
		<g>
			<rect x="1022" y="363.4" width="2" height="3.4"/>
			<text transform="matrix(1 0 0 1 1004.877 368.6429)" class="st63 st64">67</text>
		</g>
		<g>
			<rect x="1022" y="376.9" width="2" height="3.4"/>
			<text transform="matrix(1 0 0 1 1004.877 382.0714)" class="st63 st64">68</text>
		</g>
		<g>
			<rect x="1022" y="390.3" width="2" height="3.4"/>
			<text transform="matrix(1 0 0 1 1004.877 395.5)" class="st63 st64">70</text>
		</g>
		<g>
			<rect x="1022" y="403.7" width="2" height="6.9"/>
			<text transform="matrix(1 0 0 1 1004.877 410.6429)" class="st63 st64">71</text>
		</g>
		<g>
			<rect x="1022" y="420.6" width="2" height="3.4"/>
			<text transform="matrix(1 0 0 1 1004.877 425.7857)" class="st63 st64">72</text>
		</g>
		<g>
			<rect x="1022" y="434" width="2" height="10.3"/>
			<text transform="matrix(1 0 0 1 1004.877 442.6429)" class="st63 st64">73</text>
		</g>
		<g>
			<rect x="1022" y="454.3" width="2" height="3.4"/>
			<text transform="matrix(1 0 0 1 1004.877 459.5)" class="st63 st64">74</text>
		</g>
		<g>
			<rect x="1022" y="467.7" width="2" height="10.3"/>
			<text transform="matrix(1 0 0 1 1004.877 476.3571)" class="st63 st64">75</text>
		</g>
		<g>
			<rect x="1022" y="488" width="2" height="3.4"/>
			<text transform="matrix(1 0 0 1 1004.877 493.2143)" class="st63 st64">76</text>
		</g>
		<g>
			<rect x="1022" y="501.4" width="2" height="3.4"/>
			<text transform="matrix(1 0 0 1 1004.877 506.6429)" class="st63 st64">79</text>
		</g>
		<g>
			<rect x="1022" y="514.9" width="2" height="20.6"/>
			<text transform="matrix(1 0 0 1 1004.877 528.6429)" class="st63 st64">80</text>
		</g>
		<g>
			<rect x="1022" y="545.4" width="2" height="6.9"/>
			<text transform="matrix(1 0 0 1 1004.877 552.3571)" class="st63 st64">81</text>
		</g>
		<g>
			<rect x="1022" y="562.3" width="2" height="13.7"/>
			<text transform="matrix(1 0 0 1 1004.877 572.6429)" class="st63 st64">83</text>
		</g>
		<g>
			<rect x="1022" y="586" width="2" height="17.1"/>
			<text transform="matrix(1 0 0 1 1004.877 598.0714)" class="st63 st64">85</text>
		</g>
		<g>
			<rect x="1022" y="613.1" width="2" height="13.7"/>
			<text transform="matrix(1 0 0 1 1004.877 623.5)" class="st63 st64">90</text>
		</g>
		<g>
			<rect x="1022" y="636.9" width="2" height="6.9"/>
			<text transform="matrix(1 0 0 1 1004.877 643.7857)" class="st63 st64">92</text>
		</g>
		<g>
			<rect x="1022" y="653.7" width="2" height="3.4"/>
			<text transform="matrix(1 0 0 1 1004.877 658.9286)" class="st63 st64">94</text>
		</g>
		<g>
			<rect x="1022" y="667.1" width="2" height="6.9"/>
			<text transform="matrix(1 0 0 1 1004.877 674.0714)" class="st63 st64">95</text>
		</g>
		<g>
			<rect x="1022" y="684" width="2" height="6.9"/>
			<text transform="matrix(1 0 0 1 1004.877 690.9286)" class="st63 st64">98</text>
		</g>
		<g>
			<rect x="1022" y="700.9" width="2" height="6.9"/>
			<text transform="matrix(1 0 0 1 1004.877 707.7857)" class="st63 st64">99</text>
		</g>
		<g>
			<rect x="681.3" y="764.6" width="2" height="3.4"/>
			<text transform="matrix(1 0 0 1 658.6487 769.7857)" class="st63 st64">100</text>
		</g>
		<g>
			<rect x="681.3" y="0" width="2" height="3.4"/>
			<text transform="matrix(1 0 0 1 664.2103 5.2143)" class="st63 st64">16</text>
		</g>
		<g>
			<rect x="681.3" y="13.4" width="2" height="3.4"/>
			<text transform="matrix(1 0 0 1 664.2103 18.6429)" class="st63 st64">22</text>
		</g>
		<g>
			<rect x="681.3" y="26.9" width="2" height="3.4"/>
			<text transform="matrix(1 0 0 1 664.2103 32.0714)" class="st63 st64">24</text>
		</g>
		<g>
			<rect x="681.3" y="40.3" width="2" height="6.9"/>
			<text transform="matrix(1 0 0 1 664.2103 47.2143)" class="st63 st64">26</text>
		</g>
		<g>
			<rect x="681.3" y="57.1" width="2" height="3.4"/>
			<text transform="matrix(1 0 0 1 664.2103 62.3571)" class="st63 st64">28</text>
		</g>
		<g>
			<rect x="681.3" y="70.6" width="2" height="6.9"/>
			<text transform="matrix(1 0 0 1 664.2103 77.5)" class="st63 st64">30</text>
		</g>
		<g>
			<rect x="681.3" y="87.4" width="2" height="3.4"/>
			<text transform="matrix(1 0 0 1 664.2103 92.6429)" class="st63 st64">31</text>
		</g>
		<g>
			<rect x="681.3" y="100.9" width="2" height="6.9"/>
			<text transform="matrix(1 0 0 1 664.2103 107.7857)" class="st63 st64">32</text>
		</g>
		<g>
			<rect x="681.3" y="117.7" width="2" height="3.4"/>
			<text transform="matrix(1 0 0 1 664.2103 122.9286)" class="st63 st64">34</text>
		</g>
		<g>
			<rect x="681.3" y="131.1" width="2" height="3.4"/>
			<text transform="matrix(1 0 0 1 664.2103 136.3572)" class="st63 st64">35</text>
		</g>
		<g>
			<rect x="681.3" y="144.6" width="2" height="3.4"/>
			<text transform="matrix(1 0 0 1 664.2103 149.7857)" class="st63 st64">36</text>
		</g>
		<g>
			<rect x="681.3" y="158" width="2" height="6.9"/>
			<text transform="matrix(1 0 0 1 664.2103 164.9286)" class="st63 st64">40</text>
		</g>
		<g>
			<rect x="681.3" y="174.9" width="2" height="3.4"/>
			<text transform="matrix(1 0 0 1 664.2103 180.0714)" class="st63 st64">41</text>
		</g>
		<g>
			<rect x="681.3" y="188.3" width="2" height="3.4"/>
			<text transform="matrix(1 0 0 1 664.2103 193.5)" class="st63 st64">47</text>
		</g>
		<g>
			<rect x="681.3" y="201.7" width="2" height="3.4"/>
			<text transform="matrix(1 0 0 1 664.2103 206.9286)" class="st63 st64">48</text>
		</g>
		<g>
			<rect x="681.3" y="215.1" width="2" height="3.4"/>
			<text transform="matrix(1 0 0 1 664.2103 220.3572)" class="st63 st64">49</text>
		</g>
		<g>
			<rect x="681.3" y="228.6" width="2" height="27.4"/>
			<text transform="matrix(1 0 0 1 664.2103 245.7857)" class="st63 st64">50</text>
		</g>
		<g>
			<rect x="681.3" y="266" width="2" height="10.3"/>
			<text transform="matrix(1 0 0 1 664.2103 274.6429)" class="st63 st64">51</text>
		</g>
		<g>
			<rect x="681.3" y="286.3" width="2" height="3.4"/>
			<text transform="matrix(1 0 0 1 664.2103 291.5)" class="st63 st64">53</text>
		</g>
		<g>
			<rect x="681.3" y="299.7" width="2" height="3.4"/>
			<text transform="matrix(1 0 0 1 664.2103 304.9286)" class="st63 st64">54</text>
		</g>
		<g>
			<rect x="681.3" y="313.1" width="2" height="3.4"/>
			<text transform="matrix(1 0 0 1 664.2103 318.3571)" class="st63 st64">58</text>
		</g>
		<g>
			<rect x="681.3" y="326.6" width="2" height="13.7"/>
			<text transform="matrix(1 0 0 1 664.2103 336.9286)" class="st63 st64">60</text>
		</g>
		<g>
			<rect x="681.3" y="350.3" width="2" height="3.4"/>
			<text transform="matrix(1 0 0 1 664.2103 355.5)" class="st63 st64">61</text>
		</g>
		<g>
			<rect x="681.3" y="363.7" width="2" height="3.4"/>
			<text transform="matrix(1 0 0 1 664.2103 368.9286)" class="st63 st64">62</text>
		</g>
		<g>
			<rect x="681.3" y="377.1" width="2" height="3.4"/>
			<text transform="matrix(1 0 0 1 664.2103 382.3571)" class="st63 st64">64</text>
		</g>
		<g>
			<rect x="681.3" y="390.6" width="2" height="3.4"/>
			<text transform="matrix(1 0 0 1 664.2103 395.7857)" class="st63 st64">65</text>
		</g>
		<g>
			<rect x="681.3" y="404" width="2" height="3.4"/>
			<text transform="matrix(1 0 0 1 664.2103 409.2143)" class="st63 st64">66</text>
		</g>
		<g>
			<rect x="681.3" y="417.4" width="2" height="6.9"/>
			<text transform="matrix(1 0 0 1 664.2103 424.3571)" class="st63 st64">67</text>
		</g>
		<g>
			<rect x="681.3" y="434.3" width="2" height="6.9"/>
			<text transform="matrix(1 0 0 1 664.2103 441.2143)" class="st63 st64">68</text>
		</g>
		<g>
			<rect x="681.3" y="451.1" width="2" height="3.4"/>
			<text transform="matrix(1 0 0 1 664.2103 456.3571)" class="st63 st64">69</text>
		</g>
		<g>
			<rect x="681.3" y="464.6" width="2" height="20.6"/>
			<text transform="matrix(1 0 0 1 664.2103 478.3571)" class="st63 st64">70</text>
		</g>
		<g>
			<rect x="681.3" y="495.1" width="2" height="13.7"/>
			<text transform="matrix(1 0 0 1 664.2103 505.5)" class="st63 st64">71</text>
		</g>
		<g>
			<rect x="681.3" y="518.9" width="2" height="3.4"/>
			<text transform="matrix(1 0 0 1 664.2103 524.0714)" class="st63 st64">72</text>
		</g>
		<g>
			<rect x="681.3" y="532.3" width="2" height="3.4"/>
			<text transform="matrix(1 0 0 1 664.2103 537.5)" class="st63 st64">75</text>
		</g>
		<g>
			<rect x="681.3" y="545.7" width="2" height="3.4"/>
			<text transform="matrix(1 0 0 1 664.2103 550.9286)" class="st63 st64">76</text>
		</g>
		<g>
			<rect x="681.3" y="559.1" width="2" height="10.3"/>
			<text transform="matrix(1 0 0 1 664.2103 567.7857)" class="st63 st64">77</text>
		</g>
		<g>
			<rect x="681.3" y="579.4" width="2" height="3.4"/>
			<text transform="matrix(1 0 0 1 664.2103 584.6429)" class="st63 st64">78</text>
		</g>
		<g>
			<rect x="681.3" y="592.9" width="2" height="3.4"/>
			<text transform="matrix(1 0 0 1 664.2103 598.0714)" class="st63 st64">79</text>
		</g>
		<g>
			<rect x="681.3" y="606.3" width="2" height="6.9"/>
			<text transform="matrix(1 0 0 1 664.2103 613.2143)" class="st63 st64">80</text>
		</g>
		<g>
			<rect x="681.3" y="623.1" width="2" height="3.4"/>
			<text transform="matrix(1 0 0 1 664.2103 628.3571)" class="st63 st64">81</text>
		</g>
		<g>
			<rect x="681.3" y="636.6" width="2" height="6.9"/>
			<text transform="matrix(1 0 0 1 664.2103 643.5)" class="st63 st64">83</text>
		</g>
		<g>
			<rect x="681.3" y="653.4" width="2" height="3.4"/>
			<text transform="matrix(1 0 0 1 664.2103 658.6429)" class="st63 st64">85</text>
		</g>
		<g>
			<rect x="681.3" y="666.9" width="2" height="6.9"/>
			<text transform="matrix(1 0 0 1 664.2103 673.7857)" class="st63 st64">86</text>
		</g>
		<g>
			<rect x="681.3" y="683.7" width="2" height="6.9"/>
			<text transform="matrix(1 0 0 1 664.2103 690.6429)" class="st63 st64">87</text>
		</g>
		<g>
			<rect x="681.3" y="700.6" width="2" height="10.3"/>
			<text transform="matrix(1 0 0 1 664.2103 709.2143)" class="st63 st64">88</text>
		</g>
		<g>
			<rect x="681.3" y="720.9" width="2" height="6.9"/>
			<text transform="matrix(1 0 0 1 664.2103 727.7857)" class="st63 st64">90</text>
		</g>
		<g>
			<rect x="681.3" y="737.7" width="2" height="3.4"/>
			<text transform="matrix(1 0 0 1 664.2103 742.9286)" class="st63 st64">96</text>
		</g>
		<g>
			<rect x="681.3" y="751.1" width="2" height="3.4"/>
			<text transform="matrix(1 0 0 1 664.2103 756.3571)" class="st63 st64">99</text>
		</g>
		<g>
			<rect y="235" width="2" height="154.3"/>
			<text transform="matrix(4.489659e-11 -1 1 4.489659e-11 14.9998 335.6426)" class="st63 st64">no visuals</text>
		</g>
		<g>
			<rect y="399.3" width="2" height="133.7"/>
			<text transform="matrix(4.489659e-11 -1 1 4.489659e-11 14.0002 484.6426)" class="st63 st64">visuals</text>
		</g>
	</g>
</g>
</svg>
