<?xml version="1.0" encoding="utf-8"?>
<!-- Generator: Adobe Illustrator 23.1.1, SVG Export Plug-In . SVG Version: 6.00 Build 0)  -->
<svg version="1.1" id="Layer_1" xmlns="http://www.w3.org/2000/svg" xmlns:xlink="http://www.w3.org/1999/xlink" x="0px" y="0px"
	 viewBox="0 0 1400 768" style="enable-background:new 0 0 1400 768;" xml:space="preserve">
<style type="text/css">
	.st0{fill:#BF6969;stroke:#FFFFFF;}
	.st1{font-family:'ArialMT';}
	.st2{font-size:11px;}
	.st3{fill:#AEBF69;stroke:#FFFFFF;}
	.st4{fill:#69BF8B;stroke:#FFFFFF;}
	.st5{fill:#698BBF;stroke:#FFFFFF;}
	.st6{fill:#AE69BF;stroke:#FFFFFF;}
	.st7{enable-background:new    ;}
</style>
<g transform="translate(.5,.5)">
	<g transform="translate(5,5)">
		<rect class="st0" width="244.1" height="45.9"/>
		<title>undefined: NaN</title>
		<text transform="matrix(1 0 0 1 20.5453 26.7833)" class="st1 st2">Agnostic, belief in non-human intelligence (1)</text>
	</g>
	<g transform="translate(5,55.86666666666667)">
		<rect y="0" class="st0" width="244.1" height="300.2"/>
		<title>undefined: NaN</title>
		<text transform="matrix(1 0 0 1 87.4052 153.95)" class="st1 st2">Agnosticism (6)</text>
	</g>
	<g transform="translate(5,361.06666666666666)">
		<rect y="0" class="st3" width="244.1" height="147.6"/>
		<title>undefined: NaN</title>
		<text transform="matrix(1 0 0 1 97.1859 77.65)" class="st1 st2">Atheism (3)</text>
	</g>
	<g transform="translate(5,513.6666666666666)">
		<rect y="0" class="st3" width="244.1" height="249.3"/>
		<title>undefined: NaN</title>
		<text transform="matrix(1 0 0 1 92.5963 128.5167)" class="st1 st2">Buddhism (5)</text>
	</g>
	<g transform="translate(254.10714285714286,5)">
		<rect x="0" class="st3" width="260.7" height="42.7"/>
		<title>undefined: NaN</title>
		<text transform="matrix(1 0 0 1 88.8735 25.1937)" class="st1 st2">Cause and effect (1)</text>
	</g>
	<g transform="translate(254.10714285714286,52.6875)">
		<rect x="0" class="st3" width="260.7" height="519.6"/>
		<title>undefined: NaN</title>
		<text transform="matrix(1 0 0 1 103.1552 263.6313)" class="st1 st2">Christianity (12)</text>
	</g>
	<g transform="translate(254.10714285714286,577.25)">
		<rect x="0" class="st3" width="260.7" height="42.7"/>
		<title>undefined: NaN</title>
		<text transform="matrix(1 0 0 1 77.1699 25.1938)" class="st1 st2">Christianity/Paganism (1)</text>
	</g>
	<g transform="translate(254.10714285714286,624.9375)">
		<rect x="0" class="st0" width="260.7" height="42.7"/>
		<title>undefined: NaN</title>
		<text transform="matrix(1 0 0 1 88.4787 25.1938)" class="st1 st2">Existential nihilist (1)</text>
	</g>
	<g transform="translate(254.10714285714286,672.625)">
		<rect x="0" class="st4" width="260.7" height="42.7"/>
		<title>undefined: NaN</title>
		<text transform="matrix(1 0 0 1 107.4333 25.1937)" class="st1 st2">Hinduism (1)</text>
	</g>
	<g transform="translate(254.10714285714286,720.3125)">
		<rect x="0" class="st3" width="260.7" height="42.7"/>
		<title>undefined: NaN</title>
		<text transform="matrix(1 0 0 1 117.2168 25.1937)" class="st1 st2">Islam (1)</text>
	</g>
	<g transform="translate(519.8214285714286,5)">
		<rect x="0" class="st5" width="94.6" height="122.2"/>
		<title>undefined: NaN</title>
		<text transform="matrix(1 0 0 1 16.1195 64.9333)" class="st1 st2">Juramidam (1)</text>
	</g>
	<g transform="translate(519.8214285714286,132.16666666666669)">
		<rect x="0" y="0" class="st6" width="94.6" height="122.2"/>
		<title>undefined: NaN</title>
		<text transform="matrix(1 0 0 1 32.3949 64.9333)" class="st1 st2">Love (1)</text>
	</g>
	<g transform="translate(519.8214285714286,259.33333333333337)">
		<rect x="0" y="0" class="st3" width="94.6" height="122.2"/>
		<title>undefined: NaN</title>
		<text transform="matrix(1 0 0 1 16.816 64.9333)" class="st1 st2">Martial Arts (1)</text>
	</g>
	<g transform="translate(519.8214285714286,386.50000000000006)">
		<rect x="0" class="st5" width="94.6" height="122.2"/>
		<title>undefined: NaN</title>
		<text transform="matrix(1 0 0 1 16.0529 61.0831)" class="st7"><tspan x="0" y="0" class="st1 st2">Metaphysical </tspan><tspan x="-0.9" y="13.2" class="st1 st2">Humanism (1)</tspan></text>
	</g>
	<g transform="translate(519.8214285714286,513.6666666666667)">
		<rect x="0" y="0" class="st3" width="94.6" height="249.3"/>
		<title>undefined: NaN</title>
		<text transform="matrix(1 0 0 1 26.9056 128.5167)" class="st1 st2">Muslim (2)</text>
	</g>
	<g transform="translate(619.4642857142857,5)">
		<rect x="0" class="st3" width="343.8" height="758"/>
		<title>undefined: NaN</title>
		<text transform="matrix(1 0 0 1 144.7266 382.85)" class="st1 st2">None (21)</text>
	</g>
	<g transform="translate(968.2142857142857,5)">
		<rect x="0" class="st3" width="67" height="171.1"/>
		<title>undefined: NaN</title>
		<text transform="matrix(1 0 0 1 9.6174 89.3884)" class="st7"><tspan x="0" y="0" class="st1 st2">Omnists </tspan><tspan x="15" y="13.2" class="st1 st2">(1)</tspan></text>
	</g>
	<g transform="translate(1040.1785714285713,5)">
		<rect x="0" class="st5" width="138.9" height="171.1"/>
		<title>undefined: NaN</title>
		<text transform="matrix(1 0 0 1 44.4508 89.3884)" class="st1 st2">Oneness (2)</text>
	</g>
	<g transform="translate(1184.1071428571427,5)">
		<rect x="0" class="st3" width="67" height="171.1"/>
		<title>undefined: NaN</title>
		<text transform="matrix(1 0 0 1 9.5679 89.3884)" class="st7"><tspan x="0" y="0" class="st1 st2">Paganism</tspan><tspan x="17.7" y="13.2" class="st1 st2">(1)</tspan></text>
	</g>
	<g transform="translate(1256.0714285714284,5)">
		<rect x="0" class="st3" width="138.9" height="171.1"/>
		<title>undefined: NaN</title>
		<text transform="matrix(1 0 0 1 38.4789 89.3884)" class="st1 st2">Pantheism (2)</text>
	</g>
	<g transform="translate(968.2142857142857,181.07692307692307)">
		<rect x="0" y="0" class="st0" width="81.4" height="141.7"/>
		<title>undefined: NaN</title>
		<text transform="matrix(1 0 0 1 14.9137 74.7154)" class="st7"><tspan x="0" y="0" class="st1 st2">Raja Yoga</tspan><tspan x="19" y="13.2" class="st1 st2">(1)</tspan></text>
	</g>
	<g transform="translate(1054.5714285714284,181.07692307692307)">
		<rect x="0" y="0" class="st0" width="340.4" height="141.7"/>
		<title>undefined: NaN</title>
		<text transform="matrix(1 0 0 1 129.1754 74.7154)" class="st1 st2">Shamanism (4)</text>
	</g>
	<g transform="translate(968.2142857142857,327.80769230769226)">
		<rect x="0" y="0" class="st0" width="426.8" height="317.8"/>
		<title>undefined: NaN</title>
		<text transform="matrix(1 0 0 1 178.9691 162.7538)" class="st1 st2">Spiritualism (12)</text>
	</g>
	<g transform="translate(968.2142857142857,650.6153846153845)">
		<rect x="0" y="0" class="st3" width="102.9" height="112.4"/>
		<title>undefined: NaN</title>
		<text transform="matrix(1 0 0 1 23.0023 53.0423)" class="st7"><tspan x="0" y="0" class="st1 st2">Spiritualism/</tspan><tspan x="2.1" y="13.2" class="st1 st2">Science (1)</tspan></text>
	</g>
	<g transform="translate(1076.1607142857142,650.6153846153845)">
		<rect x="0" y="0" class="st5" width="102.9" height="112.4"/>
		<title>undefined: NaN</title>
		<text transform="matrix(1 0 0 1 22.2421 53.0423)" class="st7"><tspan x="0" y="0" class="st1 st2">Still figuring </tspan><tspan x="-0.6" y="13.2" class="st1 st2">this out... (1)</tspan></text>
	</g>
	<g transform="translate(1184.107142857143,650.6153846153845)">
		<rect x="0" y="0" class="st4" width="102.9" height="112.4"/>
		<title>undefined: NaN</title>
		<text transform="matrix(1 0 0 1 16.0734 55.0423)" class="st7"><tspan x="0" y="0" class="st1 st2">The Universal</tspan><tspan x="2.1" y="13.2" class="st1 st2"> Oneness (1)</tspan></text>
	</g>
	<g transform="translate(1292.0535714285716,650.6153846153845)">
		<rect x="0" y="0" class="st5" width="102.9" height="112.4"/>
		<title>undefined: NaN</title>
		<text transform="matrix(1 0 0 1 9.7428 60.0423)" class="st1 st2">Transponders (1)</text>
	</g>
</g>
</svg>
